<svg width="16" height="16" viewBox="0 0 16 16" fill="none" xmlns="http://www.w3.org/2000/svg">
<g id="bar-line-chart">
<path id="Icon" d="M13.3334 13.3333V8.66667M8.00002 13.3333V6.66667M2.66669 13.3333L2.66669 10.6667M8.93781 3.35167L12.3834 4.64378M7.1992 3.60061L3.46684 6.39989M14.0405 4.29289C14.431 4.68342 14.431 5.31658 14.0405 5.70711C13.6499 6.09763 13.0168 6.09763 12.6262 5.70711C12.2357 5.31658 12.2357 4.68342 12.6262 4.29289C13.0168 3.90237 13.6499 3.90237 14.0405 4.29289ZM3.37379 6.29289C3.76432 6.68342 3.76432 7.31658 3.37379 7.70711C2.98327 8.09763 2.3501 8.09763 1.95958 7.70711C1.56906 7.31658 1.56906 6.68342 1.95958 6.29289C2.3501 5.90237 2.98327 5.90237 3.37379 6.29289ZM8.70713 2.29289C9.09765 2.68342 9.09765 3.31658 8.70713 3.70711C8.3166 4.09763 7.68344 4.09763 7.29291 3.70711C6.90239 3.31658 6.90239 2.68342 7.29291 2.29289C7.68344 1.90237 8.3166 1.90237 8.70713 2.29289Z" stroke="#4B5563" stroke-width="1.33333" stroke-linecap="round" stroke-linejoin="round"/>
</g>
</svg>
