<svg width="16" height="16" viewBox="0 0 16 16" fill="none" xmlns="http://www.w3.org/2000/svg">
<g id="bell-01">
<path id="Icon" d="M6.23615 14C6.70624 14.4149 7.32374 14.6667 8.00003 14.6667C8.67633 14.6667 9.29383 14.4149 9.76392 14M12 5.33333C12 4.27246 11.5786 3.25505 10.8285 2.5049C10.0783 1.75476 9.0609 1.33333 8.00003 1.33333C6.93917 1.33333 5.92175 1.75476 5.17161 2.5049C4.42146 3.25505 4.00003 4.27246 4.00003 5.33333C4.00003 7.39345 3.48035 8.80397 2.89981 9.73694C2.41012 10.5239 2.16527 10.9174 2.17425 11.0272C2.18419 11.1487 2.20994 11.1951 2.30788 11.2677C2.39634 11.3333 2.79509 11.3333 3.5926 11.3333H12.4075C13.205 11.3333 13.6037 11.3333 13.6922 11.2677C13.7901 11.1951 13.8159 11.1487 13.8258 11.0272C13.8348 10.9174 13.5899 10.5239 13.1003 9.73694C12.5197 8.80397 12 7.39345 12 5.33333Z" stroke="#717375" stroke-width="1.33333" stroke-linecap="round" stroke-linejoin="round"/>
</g>
</svg>
