<svg width="58" height="36" viewBox="0 0 58 36" fill="none" xmlns="http://www.w3.org/2000/svg">
<g id="Vector 9" filter="url(#filter0_d_151_10244)">
<path d="M53.6364 28.6363L48.2965 19.895C48.0349 19.4667 47.4819 19.3213 47.0435 19.5655L41.9574 22.3988C41.4874 22.6607 40.8938 22.4727 40.6601 21.988L34.9626 10.1704C34.8692 9.97652 34.7118 9.82086 34.5169 9.72961L30.2545 7.73375C29.8139 7.5274 29.2886 7.69352 29.0467 8.11574L22.8702 18.8966C22.7834 19.0481 22.6559 19.1723 22.5022 19.2551L16.7849 22.3337C16.2612 22.6158 15.6106 22.3435 15.444 21.7724L10.7642 5.73566C10.6952 5.49942 10.5359 5.29988 10.3208 5.18032L3.45453 1.3636" stroke="#F63972" stroke-width="2" stroke-linecap="round"/>
</g>
<defs>
<filter id="filter0_d_151_10244" x="0.817982" y="0.363403" width="57.0912" height="35.0003" filterUnits="userSpaceOnUse" color-interpolation-filters="sRGB">
<feFlood flood-opacity="0" result="BackgroundImageFix"/>
<feColorMatrix in="SourceAlpha" type="matrix" values="0 0 0 0 0 0 0 0 0 0 0 0 0 0 0 0 0 0 127 0" result="hardAlpha"/>
<feOffset dx="0.818182" dy="3.27273"/>
<feGaussianBlur stdDeviation="1.22727"/>
<feComposite in2="hardAlpha" operator="out"/>
<feColorMatrix type="matrix" values="0 0 0 0 0.964706 0 0 0 0 0.223529 0 0 0 0 0.447059 0 0 0 0.22 0"/>
<feBlend mode="normal" in2="BackgroundImageFix" result="effect1_dropShadow_151_10244"/>
<feBlend mode="normal" in="SourceGraphic" in2="effect1_dropShadow_151_10244" result="shape"/>
</filter>
</defs>
</svg>
