<svg width="24" height="18" viewBox="0 0 24 18" fill="none" xmlns="http://www.w3.org/2000/svg">
<g id="Rounded">
<g clip-path="url(#clip0_151_10637)">
<rect width="24" height="18" rx="1.74545" fill="white"/>
<g id="Element">
<path fill-rule="evenodd" clip-rule="evenodd" d="M0 0H12.1118V9.33333H0V0Z" fill="#1A47B8"/>
<path fill-rule="evenodd" clip-rule="evenodd" d="M12.1118 0L12.1118 1.33333H28.2609V0H12.1118ZM12.1118 2.66667V4H28.2609V2.66667H12.1118ZM12.1118 5.33333V6.66667H28.2609V5.33333H12.1118ZM12.1118 8L12.1118 9.33333H28.2609V8H12.1118ZM0 10.6667V12H28.2609V10.6667H0ZM0 13.3333V14.6667H28.2609V13.3333H0ZM0 16V17.3333H28.2609V16H0ZM0 18.6667V20H28.2609V18.6667H0Z" fill="#F93939"/>
<path fill-rule="evenodd" clip-rule="evenodd" d="M1.34559 1.33331V2.66664H2.69135V1.33331H1.34559ZM4.03711 1.33331V2.66664H5.38286V1.33331H4.03711ZM6.72862 1.33331V2.66664H8.07437V1.33331H6.72862ZM9.42013 1.33331V2.66664H10.7659V1.33331H9.42013ZM8.07437 2.66664V3.99997H9.42013V2.66664H8.07437ZM5.38286 2.66664V3.99997H6.72862V2.66664H5.38286ZM2.69135 2.66664V3.99997H4.03711V2.66664H2.69135ZM1.34559 3.99997V5.33331H2.69135V3.99997H1.34559ZM4.03711 3.99997V5.33331H5.38286V3.99997H4.03711ZM6.72862 3.99997V5.33331H8.07437V3.99997H6.72862ZM9.42013 3.99997V5.33331H10.7659V3.99997H9.42013ZM1.34559 6.66664V7.99997H2.69135V6.66664H1.34559ZM4.03711 6.66664V7.99997H5.38286V6.66664H4.03711ZM6.72862 6.66664V7.99997H8.07437V6.66664H6.72862ZM9.42013 6.66664V7.99997H10.7659V6.66664H9.42013ZM8.07437 5.33331V6.66664H9.42013V5.33331H8.07437ZM5.38286 5.33331V6.66664H6.72862V5.33331H5.38286ZM2.69135 5.33331V6.66664H4.03711V5.33331H2.69135Z" fill="white"/>
</g>
</g>
</g>
<defs>
<clipPath id="clip0_151_10637">
<rect width="24" height="18" rx="1.74545" fill="white"/>
</clipPath>
</defs>
</svg>
