<svg width="24" height="18" viewBox="0 0 24 18" fill="none" xmlns="http://www.w3.org/2000/svg">
<g id="Rounded">
<g clip-path="url(#clip0_151_10611)">
<rect width="24" height="18" rx="1.74545" fill="white"/>
<g id="Element">
<path d="M12.3299 13.9412H11.671L11.8357 11.9647C11.8264 11.8606 11.7598 11.8333 11.5063 11.8412L8.87104 12.0882C8.87104 12.0882 9.36516 11.5941 9.36516 11.3471C9.36516 11.1 6.40045 9.49412 6.40045 9.49412C6.40045 9.49412 7.05927 9.37059 7.22398 9.24706C7.38869 9.12353 6.56516 7.76471 6.56516 7.76471C6.56516 7.76471 8.23894 8.25883 8.37692 8.1353C8.5149 8.01177 8.70633 7.51765 8.70633 7.51765C8.70633 7.51765 10.024 8.62941 10.3534 8.62941C10.6828 8.62941 9.69457 5.91177 9.69457 5.91177C9.69457 5.91177 10.5181 6.40588 10.8475 6.40588C11.1769 6.40588 12.0005 4.8 12.0005 4.8C12.0005 4.8 12.824 6.40588 12.9887 6.40588C13.1534 6.40588 14.3063 5.91177 14.3063 5.91177C14.3063 5.91177 13.4828 8.50588 13.6475 8.62941C13.8122 8.75294 15.2946 7.51765 15.2946 7.51765C15.2946 7.51765 15.4593 8.01177 15.624 8.1353C15.7887 8.25883 17.4357 7.76471 17.4357 7.76471C17.4357 7.76471 16.6122 9.12353 16.7769 9.24706C16.9416 9.37059 17.6005 9.49412 17.6005 9.49412C17.6005 9.49412 14.6357 11.1 14.6357 11.3471C14.6357 11.5941 14.9652 12.0882 14.9652 12.0882L12.4946 11.8412C12.296 11.7985 12.2271 11.8309 12.1652 11.9647L12.3299 13.9412Z" fill="#F93939"/>
<path d="M20.8003 0H28.8003V18H20.8003V0Z" fill="#F93939"/>
<path d="M-4.7998 0H3.2002V18H-4.7998V0Z" fill="#F93939"/>
</g>
</g>
</g>
<defs>
<clipPath id="clip0_151_10611">
<rect width="24" height="18" rx="1.74545" fill="white"/>
</clipPath>
</defs>
</svg>
