<svg width="18" height="18" viewBox="0 0 18 18" fill="none" xmlns="http://www.w3.org/2000/svg">
<g id="Frame 2147223318">
<path id="Ellipse 747" d="M9 1.26507C9 0.566459 8.43092 -0.00899834 7.7392 0.0888709C6.79514 0.222442 5.87559 0.505572 5.01584 0.930023C3.77679 1.54174 2.69523 2.43055 1.85499 3.52757C1.01475 4.62459 0.438406 5.90036 0.170618 7.25599C-0.0971718 8.61162 -0.0492077 10.0107 0.310791 11.3448C0.670788 12.6789 1.33315 13.9122 2.24654 14.9491C3.15994 15.986 4.29982 16.7987 5.57786 17.3241C6.8559 17.8495 8.23777 18.0736 9.61635 17.979C10.5729 17.9133 11.5101 17.6954 12.3932 17.336C13.0402 17.0726 13.2426 16.289 12.8911 15.6852C12.5397 15.0814 11.767 14.8903 11.1065 15.1177C10.571 15.3021 10.0118 15.416 9.44309 15.455C8.45203 15.5231 7.45861 15.362 6.53983 14.9842C5.62104 14.6065 4.80158 14.0223 4.14494 13.2769C3.4883 12.5314 3.01213 11.6448 2.75333 10.6857C2.49452 9.72664 2.46004 8.72083 2.65256 7.74626C2.84507 6.7717 3.25941 5.85455 3.86345 5.0659C4.4675 4.27726 5.24503 3.63829 6.13579 3.19853C6.64693 2.94618 7.18748 2.76331 7.74308 2.65328C8.42838 2.51757 9 1.96368 9 1.26507Z" fill="#EDF2FA"/>
<path id="Ellipse 746" d="M9 16.7352C9 17.4338 9.56908 18.0092 10.2608 17.9114C11.2049 17.7778 12.1244 17.4947 12.9842 17.0702C14.2232 16.4585 15.3048 15.5697 16.145 14.4727C16.9852 13.3757 17.5616 12.0999 17.8294 10.7443C18.0972 9.38862 18.0492 7.98953 17.6892 6.65542C17.3292 5.32131 16.6668 4.08801 15.7535 3.0511C14.8401 2.0142 13.7002 1.20154 12.4221 0.676121C11.1441 0.150698 9.76223 -0.0733807 8.38365 0.0212518C7.42709 0.0869147 6.48993 0.3048 5.60683 0.664271C4.95977 0.92766 4.75742 1.71128 5.10886 2.31506C5.4603 2.91884 6.23296 3.10998 6.89351 2.88253C7.42904 2.69813 7.9882 2.58425 8.5569 2.54521C9.54797 2.47718 10.5414 2.63827 11.4602 3.016C12.379 3.39372 13.1984 3.97794 13.8551 4.72337C14.5117 5.4688 14.9879 6.35542 15.2467 7.31451C15.5055 8.27361 15.54 9.27941 15.3474 10.254C15.1549 11.2285 14.7406 12.1457 14.1365 12.9343C13.5325 13.723 12.755 14.362 11.8642 14.8017C11.3531 15.0541 10.8125 15.2369 10.2569 15.347C9.57162 15.4827 9 16.0366 9 16.7352Z" fill="#ED4967"/>
</g>
</svg>
