<svg width="18" height="18" viewBox="0 0 18 18" fill="none" xmlns="http://www.w3.org/2000/svg">
<g id="home-line">
<path id="Icon" d="M6 12.75H12M8.26327 2.07303L3.17654 6.02937C2.83652 6.29384 2.6665 6.42607 2.54402 6.59167C2.43552 6.73836 2.3547 6.90362 2.30552 7.07932C2.25 7.27767 2.25 7.49305 2.25 7.92382V13.35C2.25 14.1901 2.25 14.6101 2.41349 14.931C2.5573 15.2132 2.78677 15.4427 3.06901 15.5865C3.38988 15.75 3.80992 15.75 4.65 15.75H13.35C14.1901 15.75 14.6101 15.75 14.931 15.5865C15.2132 15.4427 15.4427 15.2132 15.5865 14.931C15.75 14.6101 15.75 14.1901 15.75 13.35V7.92382C15.75 7.49305 15.75 7.27767 15.6945 7.07932C15.6453 6.90362 15.5645 6.73836 15.456 6.59167C15.3335 6.42607 15.1635 6.29384 14.8235 6.02937L9.73673 2.07303C9.47324 1.86809 9.34149 1.76562 9.19601 1.72623C9.06765 1.69148 8.93235 1.69148 8.80399 1.72623C8.65851 1.76562 8.52677 1.86809 8.26327 2.07303Z" stroke="#705EE6" stroke-width="1.5" stroke-linecap="round" stroke-linejoin="round"/>
</g>
</svg>
