<svg width="24" height="24" viewBox="0 0 24 24" fill="none" xmlns="http://www.w3.org/2000/svg">
<g id="wi:day-fog">
<path id="Vector" d="M0.255859 16.8481C0.255859 17.0321 0.319859 17.1921 0.455859 17.3201C0.591859 17.4481 0.759859 17.5121 0.959859 17.5121H15.9279C16.1199 17.5121 16.2799 17.4481 16.4159 17.3201C16.5519 17.1921 16.6159 17.0401 16.6159 16.8481C16.6159 16.6561 16.5519 16.4961 16.4159 16.3681C16.3527 16.3029 16.2768 16.2515 16.1928 16.217C16.1088 16.1826 16.0186 16.166 15.9279 16.1681H0.959859C0.759859 16.1681 0.591859 16.2321 0.455859 16.3681C0.319859 16.5041 0.255859 16.6561 0.255859 16.8481ZM2.35186 14.3361C2.35186 14.5201 2.41586 14.6801 2.55186 14.8001C2.61198 14.8681 2.68587 14.9225 2.76863 14.9597C2.85138 14.997 2.94111 15.0162 3.03186 15.0161H18.0079C18.1919 15.0161 18.3519 14.9521 18.4799 14.8161C18.6079 14.6801 18.6719 14.5201 18.6719 14.3361C18.6744 14.1608 18.6084 13.9914 18.4879 13.8641C18.4268 13.8011 18.3533 13.7516 18.272 13.7185C18.1908 13.6855 18.1035 13.6697 18.0159 13.6721H3.03986C2.84786 13.6721 2.68786 13.7361 2.55986 13.8641C2.42386 14.0001 2.35186 14.1521 2.35186 14.3361ZM2.45586 12.4161C2.45586 12.4881 2.49586 12.5201 2.58386 12.5201H3.72786C3.78386 12.5201 3.83986 12.4801 3.89586 12.3921C4.08786 11.9761 4.36786 11.6401 4.74386 11.3761C5.11986 11.1121 5.53586 10.9601 5.99186 10.9281L6.42386 10.8721C6.51186 10.8721 6.55986 10.8241 6.55986 10.7281L6.61586 10.3201C6.70386 9.45611 7.06386 8.73611 7.71186 8.15211C8.35986 7.57611 9.11986 7.28011 9.99986 7.28011C10.8639 7.28011 11.6239 7.56811 12.2719 8.14411C12.9199 8.72011 13.2879 9.43211 13.3759 10.2881L13.4319 10.7521C13.4319 10.8401 13.4799 10.8881 13.5839 10.8881H14.8719C15.3839 10.8881 15.8559 11.0241 16.2799 11.3041C16.7039 11.5761 17.0159 11.9441 17.2239 12.4001C17.2799 12.4881 17.3279 12.5281 17.3839 12.5281H18.5359C18.6399 12.5281 18.6799 12.4721 18.6399 12.3441L18.4799 11.9041C19.0879 11.1521 19.3839 10.2721 19.3839 9.25611C19.3839 8.68811 19.2719 8.15211 19.0559 7.63211C18.8399 7.11211 18.5439 6.67211 18.1679 6.29611C17.7999 5.92011 17.3519 5.62411 16.8319 5.40011C16.3119 5.17611 15.7759 5.08011 15.1999 5.08011C13.9679 5.08011 12.9439 5.52811 12.1439 6.42411C11.4639 6.08811 10.7519 5.92011 9.99986 5.92011C8.87986 5.92011 7.87986 6.27211 7.00786 6.97611C6.13586 7.68011 5.57586 8.57611 5.32786 9.67211C3.90386 10.0481 2.94386 10.9361 2.46386 12.3521C2.45586 12.3601 2.45586 12.3841 2.45586 12.4161ZM3.75186 19.3041C3.75186 19.4961 3.82386 19.6561 3.96786 19.7841C4.09586 19.9201 4.24786 19.9921 4.43986 19.9921H19.4319C19.6159 19.9921 19.7759 19.9281 19.9119 19.7921C20.0479 19.6561 20.1119 19.4961 20.1119 19.3041C20.1119 19.1201 20.0479 18.9681 19.9119 18.8401C19.7807 18.7206 19.6093 18.6549 19.4319 18.6561H4.43986C4.25978 18.6535 4.0854 18.7193 3.95186 18.8401C3.81586 18.9681 3.75186 19.1201 3.75186 19.3041ZM9.00786 3.72811C9.00786 3.92011 9.07186 4.07211 9.19186 4.20011L9.71186 4.71211C9.84786 4.85611 9.99986 4.92811 10.1759 4.92811C10.3519 4.92811 10.5119 4.86411 10.6559 4.72811C10.7919 4.59211 10.8639 4.43211 10.8639 4.24011C10.8639 4.04811 10.7999 3.88011 10.6639 3.73611L10.1519 3.24811C10.0912 3.18135 10.017 3.12827 9.93427 3.09241C9.8515 3.05654 9.76205 3.03872 9.67186 3.04011C9.47986 3.04011 9.31986 3.10411 9.19186 3.24011C9.07186 3.36811 9.00786 3.53611 9.00786 3.72811ZM13.2639 7.23211C13.7999 6.68811 14.4479 6.42411 15.2079 6.42411C15.9919 6.42411 16.6639 6.70411 17.2159 7.25611C17.7679 7.80811 18.0479 8.48011 18.0479 9.25611C18.0479 9.77611 17.9199 10.2561 17.6559 10.6961C16.8959 9.93611 15.9679 9.56011 14.8799 9.56011H14.6079C14.3759 8.61611 13.9279 7.84011 13.2639 7.23211ZM14.5439 3.04811C14.5439 3.23211 14.6079 3.39211 14.7359 3.52011C14.8639 3.64811 15.0159 3.71211 15.2079 3.71211C15.4079 3.71211 15.5759 3.64811 15.7119 3.52011C15.8479 3.39211 15.9119 3.24011 15.9119 3.04811V1.40811C15.9119 1.22411 15.8399 1.06411 15.7039 0.928114C15.6371 0.863261 15.5583 0.812211 15.4718 0.777891C15.3853 0.743572 15.2929 0.726656 15.1999 0.728114C15.0159 0.728114 14.8559 0.792114 14.7279 0.928114C14.5999 1.06411 14.5359 1.22411 14.5359 1.40811V3.04811H14.5439ZM18.9359 4.86411C18.9359 5.04011 18.9999 5.20811 19.1279 5.34411C19.4239 5.63211 19.7519 5.63211 20.1119 5.34411L21.2559 4.20011C21.3839 4.05611 21.4479 3.88811 21.4479 3.68811C21.4479 3.50411 21.3839 3.34411 21.2559 3.21611C21.1943 3.15376 21.1207 3.10459 21.0396 3.07158C20.9585 3.03857 20.8714 3.02242 20.7839 3.02411C20.5919 3.02411 20.4319 3.08811 20.3039 3.21611L19.1359 4.39211C18.9999 4.53611 18.9359 4.69611 18.9359 4.86411ZM19.5839 14.3041C19.5839 14.4961 19.6559 14.6561 19.7919 14.7841L20.3039 15.3041C20.4319 15.4321 20.5919 15.4961 20.7679 15.4961C20.9359 15.4961 21.0959 15.4321 21.2559 15.3041C21.3839 15.1681 21.4479 14.9921 21.4479 14.7921C21.4479 14.6161 21.3839 14.4641 21.2559 14.3441L20.7359 13.8161C20.6059 13.6937 20.4344 13.6251 20.2559 13.6241C20.0639 13.6241 19.9039 13.6881 19.7759 13.8241C19.6479 13.9521 19.5839 14.1121 19.5839 14.3041ZM20.7679 9.25611C20.7679 9.44811 20.8399 9.60811 20.9759 9.73611C21.0959 9.87211 21.2559 9.93611 21.4479 9.93611H23.0879C23.2719 9.93611 23.4319 9.87211 23.5599 9.73611C23.6879 9.60011 23.7519 9.44011 23.7519 9.25611C23.7519 9.06411 23.6879 8.90411 23.5599 8.77611C23.4988 8.71314 23.4253 8.66356 23.344 8.63051C23.2628 8.59745 23.1755 8.58165 23.0879 8.58411H21.4479C21.2559 8.58411 21.0959 8.64811 20.9679 8.78411C20.8319 8.91211 20.7679 9.07211 20.7679 9.25611Z" fill="#397CF6"/>
</g>
</svg>
