<svg width="137" height="20" viewBox="0 0 137 20" fill="none" xmlns="http://www.w3.org/2000/svg">
<g id="logo design SVG FILE 1" clip-path="url(#clip0_151_28753)">
<g id="Layer 2">
<g id="Layer 1">
<path id="Vector" d="M23.1699 2.94727H28.3539C29.7 2.94727 30.8883 3.23512 31.9188 3.81084C32.9493 4.38656 33.7497 5.18878 34.3199 6.21752C34.8896 7.24652 35.1746 8.42068 35.1748 9.74001C35.175 11.0593 34.8901 12.2336 34.3199 13.2629C33.7497 14.2919 32.9493 15.094 31.9188 15.6692C30.8883 16.2444 29.7 16.5323 28.3539 16.5329H23.1699V2.94727ZM28.281 15.2909C29.3967 15.2909 30.3729 15.0548 31.2094 14.5825C32.046 14.1102 32.6948 13.4565 33.1559 12.6215C33.6166 11.7871 33.8469 10.8264 33.8469 9.73942C33.8469 8.65246 33.6166 7.69192 33.1559 6.85778C32.6948 6.02312 32.046 5.36977 31.2094 4.89773C30.3729 4.4257 29.3967 4.18955 28.281 4.18929H24.5159V15.2907L28.281 15.2909Z" fill="#06002B"/>
<path id="Vector_2" d="M44.1423 7.24619C44.8091 7.9127 45.1425 8.89923 45.1427 10.2058V16.533H43.9056V14.9416C43.6148 15.472 43.1876 15.886 42.6238 16.1836C42.0601 16.4813 41.39 16.63 40.6135 16.6299C39.5463 16.6299 38.6975 16.3582 38.067 15.8149C37.4365 15.2717 37.1212 14.5536 37.1211 13.6607C37.1211 12.794 37.4152 12.0953 38.0033 11.5647C38.5914 11.034 39.5282 10.7687 40.8134 10.7687H43.8512V10.1478C43.8512 9.26778 43.6208 8.59815 43.16 8.13888C42.6992 7.67961 42.0262 7.44997 41.141 7.44997C40.546 7.4479 39.9552 7.55626 39.3949 7.7702C38.8371 7.98381 38.358 8.27819 37.9579 8.65331L37.376 7.62484C37.8608 7.1851 38.4429 6.8454 39.1221 6.60574C39.8013 6.36607 40.5167 6.24644 41.2683 6.24683C42.5171 6.24683 43.4751 6.57995 44.1423 7.24619ZM42.687 15.0096C43.2084 14.6536 43.5964 14.1391 43.8512 13.4661V11.7974H40.8501C39.213 11.7974 38.3944 12.4055 38.3944 13.6218C38.3944 14.2171 38.6066 14.686 39.0311 15.0285C39.4555 15.3711 40.0496 15.5426 40.8134 15.543C41.5411 15.5431 42.1656 15.3653 42.687 15.0096Z" fill="#06002B"/>
<path id="Vector_3" d="M55.402 15.3877V16.533H47.6172V15.6208L53.6378 7.48892H47.7263V6.32446H55.293V7.23669L49.2725 15.3877H55.402Z" fill="#06002B"/>
<path id="Vector_4" d="M65.6867 7.36246C66.396 8.10685 66.7507 9.19056 66.7507 10.6136V16.5336H65.4593V10.7503C65.4593 9.68917 65.2107 8.88036 64.7135 8.32392C64.2163 7.76748 63.5072 7.48913 62.5861 7.48887C61.5555 7.48887 60.74 7.81548 60.1396 8.4687C59.5393 9.12191 59.2389 10.0242 59.2386 11.1757V16.533H57.9471V2.13216H59.2386V8.11076C59.5901 7.51577 60.0752 7.05643 60.6937 6.73275C61.3122 6.40907 62.0217 6.24743 62.822 6.24782C64.0224 6.24717 64.9773 6.61871 65.6867 7.36246Z" fill="#06002B"/>
<path id="Vector_5" d="M77.6273 6.8968C78.3549 7.33054 78.9248 7.94188 79.337 8.73082C79.7492 9.51977 79.9554 10.4194 79.9555 11.4296C79.9555 12.4387 79.7494 13.3379 79.337 14.1274C78.9246 14.9169 78.3548 15.5314 77.6273 15.971C76.8999 16.4111 76.0875 16.6311 75.19 16.6308C74.3896 16.6308 73.6711 16.4497 73.0345 16.0874C72.3979 15.7252 71.8856 15.2012 71.4976 14.5154V16.5329H70.2607V2.13208H71.5522V8.26445C71.9522 7.60433 72.4646 7.10286 73.0892 6.76003C73.7138 6.41721 74.4141 6.24586 75.19 6.24599C76.0872 6.24651 76.8997 6.46345 77.6273 6.8968ZM76.918 14.9122C77.4636 14.5824 77.8909 14.1135 78.1997 13.5055C78.5086 12.8975 78.6633 12.2055 78.6641 11.4296C78.6641 10.6532 78.5095 9.96087 78.2003 9.35272C77.8911 8.74457 77.4638 8.27565 76.9185 7.94598C76.3729 7.61579 75.7665 7.45076 75.0995 7.45089C74.4202 7.45089 73.8109 7.61592 73.2716 7.94598C72.7323 8.27605 72.3079 8.74496 71.9984 9.35272C71.6891 9.96113 71.5344 10.6534 71.5344 11.4296C71.5344 12.2058 71.6889 12.8976 71.9977 13.5051C72.3068 14.1135 72.7312 14.5824 73.2708 14.9118C73.8105 15.2413 74.4198 15.4063 75.0988 15.4069C75.7658 15.4072 76.3722 15.2423 76.918 14.9122Z" fill="#06002B"/>
<path id="Vector_6" d="M84.0123 15.9605C83.2823 15.5245 82.6784 14.8832 82.2662 14.1064C81.842 13.3178 81.6299 12.4256 81.6299 11.4297C81.6299 10.4337 81.8421 9.54092 82.2665 8.7512C82.6909 7.96226 83.2729 7.34766 84.0127 6.9074C84.7524 6.46715 85.5831 6.24728 86.5046 6.2478C87.426 6.2478 88.2566 6.46767 88.9965 6.9074C89.7257 7.33654 90.3275 7.97534 90.7334 8.7512C91.1519 9.54066 91.3611 10.4335 91.3611 11.4297C91.3611 12.4258 91.1518 13.3181 90.7331 14.1064C90.326 14.8838 89.7247 15.5256 88.9961 15.9601C88.2562 16.4064 87.4256 16.6295 86.5042 16.6295C85.5828 16.6295 84.7522 16.4065 84.0123 15.9605ZM88.3316 14.9123C88.871 14.5825 89.2922 14.1136 89.595 13.5056C89.8979 12.8975 90.0499 12.2056 90.051 11.4297C90.051 10.6532 89.8994 9.96092 89.5963 9.35277C89.2932 8.74462 88.8721 8.27571 88.3329 7.94604C87.7933 7.61585 87.184 7.45082 86.5049 7.45095C85.8259 7.45108 85.2165 7.61611 84.677 7.94604C84.1372 8.27584 83.7127 8.74475 83.4036 9.35277C83.0946 9.96079 82.9397 10.6531 82.9391 11.4297C82.9391 12.2061 83.0937 12.8983 83.4029 13.5061C83.7121 14.114 84.1366 14.5829 84.6762 14.9129C85.2157 15.2429 85.825 15.408 86.5042 15.408C87.1834 15.408 87.7925 15.2427 88.3316 14.9123Z" fill="#06002B"/>
<path id="Vector_7" d="M100.165 7.24619C100.832 7.9127 101.165 8.89923 101.166 10.2058V16.533H99.9285V14.9416C99.6374 15.472 99.2102 15.886 98.6467 16.1836C98.0832 16.4813 97.4133 16.63 96.6369 16.6299C95.5698 16.6299 94.721 16.3582 94.0905 15.8149C93.46 15.2717 93.1447 14.5536 93.1445 13.6607C93.1445 12.794 93.4386 12.0953 94.0267 11.5647C94.6149 11.034 95.5516 10.7687 96.8369 10.7687H99.8746V10.1478C99.8746 9.26778 99.6442 8.59815 99.1832 8.13888C98.7223 7.67961 98.0494 7.44997 97.1645 7.44997C96.5695 7.44796 95.9787 7.55632 95.4185 7.7702C94.8608 7.98381 94.3818 8.27819 93.9817 8.65331L93.3998 7.62484C93.8845 7.1851 94.4666 6.8454 95.1459 6.60574C95.8252 6.36607 96.5406 6.24644 97.2921 6.24683C98.5403 6.24683 99.4979 6.57995 100.165 7.24619ZM98.7099 15.0096C99.231 14.6536 99.6191 14.1391 99.8741 13.4661V11.7974H96.873C95.2359 11.7974 94.4173 12.4055 94.4173 13.6218C94.4173 14.2171 94.6295 14.686 95.054 15.0285C95.4784 15.3711 96.0725 15.5426 96.8363 15.543C97.5635 15.5431 98.188 15.3653 98.7099 15.0096Z" fill="#06002B"/>
<path id="Vector_8" d="M107.267 6.77083C107.867 6.42149 108.61 6.24683 109.495 6.24683V7.58595L109.186 7.56642C108.179 7.56642 107.391 7.89635 106.821 8.55621C106.251 9.21607 105.967 10.1413 105.966 11.332V16.533H104.675V6.32439H105.912V8.32312C106.215 7.6376 106.666 7.12017 107.267 6.77083Z" fill="#06002B"/>
<path id="Vector_9" d="M120.464 2.1322V16.533H119.226V14.5146C118.839 15.2006 118.326 15.7246 117.69 16.0866C117.053 16.4486 116.335 16.6297 115.534 16.6299C114.637 16.6299 113.824 16.41 113.097 15.9701C112.369 15.5303 111.799 14.9155 111.387 14.126C110.975 13.3366 110.769 12.4374 110.769 11.4282C110.769 10.419 110.975 9.51969 111.387 8.73036C111.799 7.94129 112.369 7.32994 113.097 6.89633C113.825 6.46272 114.637 6.24604 115.534 6.24631C116.31 6.24631 117.01 6.41765 117.635 6.76035C118.259 7.10304 118.772 7.60452 119.172 8.26477V2.1322H120.464ZM117.453 14.9124C117.993 14.5826 118.417 14.1136 118.726 13.5056C119.036 12.8976 119.19 12.2056 119.19 11.4297C119.19 10.6533 119.036 9.96099 118.726 9.35284C118.417 8.74469 117.993 8.27578 117.453 7.94611C116.913 7.61591 116.31 7.45088 115.643 7.45101C114.964 7.45101 114.355 7.61604 113.815 7.94611C113.276 8.27617 112.852 8.74508 112.542 9.35284C112.233 9.96125 112.078 10.6535 112.078 11.4297C112.078 12.2059 112.233 12.8981 112.542 13.5062C112.851 14.1146 113.276 14.5835 113.815 14.9129C114.355 15.2424 114.964 15.4074 115.643 15.408C116.31 15.4076 116.913 15.2424 117.453 14.9124Z" fill="#06002B"/>
<path id="Vector_10" d="M124.401 16.2708C123.691 16.0317 123.137 15.731 122.736 15.3685L123.318 14.2822C123.719 14.6186 124.222 14.8937 124.828 15.1073C125.439 15.3214 126.077 15.4295 126.72 15.4275C127.593 15.4275 128.239 15.2818 128.657 14.9904C129.076 14.6991 129.285 14.2884 129.284 13.7584C129.284 13.3831 129.169 13.0887 128.939 12.8753C128.709 12.6618 128.417 12.4998 128.065 12.3894C127.714 12.2793 127.247 12.1725 126.665 12.0691C125.889 11.914 125.264 11.7554 124.791 11.5934C124.327 11.4375 123.909 11.1529 123.582 10.7687C123.248 10.3805 123.081 9.84363 123.082 9.15798C123.082 8.30391 123.415 7.60523 124.082 7.06195C124.749 6.51866 125.677 6.24696 126.865 6.24683C127.492 6.2479 128.115 6.33591 128.72 6.50863C129.339 6.6833 129.848 6.913 130.248 7.19774L129.685 8.30358C128.896 7.72109 127.956 7.42991 126.865 7.43004C126.04 7.43004 125.418 7.5853 125 7.89583C124.582 8.20635 124.373 8.61398 124.373 9.11871C124.373 9.50699 124.491 9.81751 124.727 10.0503C124.964 10.283 125.258 10.4545 125.609 10.5647C125.961 10.6746 126.446 10.7878 127.065 10.9043C127.83 11.0591 128.442 11.2147 128.902 11.371C129.355 11.5211 129.763 11.7956 130.085 12.167C130.412 12.5423 130.576 13.0598 130.576 13.7195C130.576 14.6126 130.227 15.321 129.53 15.8446C128.833 16.3683 127.866 16.6303 126.629 16.6306C125.873 16.634 125.122 16.5126 124.401 16.2708Z" fill="#06002B"/>
<path id="Vector_11" d="M134.508 16.6901C135.7 16.6901 136.667 15.6589 136.667 14.3868C136.667 13.1147 135.7 12.0835 134.508 12.0835C133.316 12.0835 132.35 13.1147 132.35 14.3868C132.35 15.6589 133.316 16.6901 134.508 16.6901Z" fill="#A6A6FF"/>
<path id="Vector_12" d="M16.1971 7.7007C16.2855 8.28391 16.2766 8.99724 16.0667 9.8485C16.055 9.89735 16.0371 9.95225 16.0253 10.0011C16.018 10.0363 16.007 10.0687 15.9982 10.1C15.6644 11.3301 15.2713 12.7841 14.9234 14.0845C14.8161 14.4837 14.7123 14.866 14.6149 15.2246C14.4211 15.9379 14.0562 16.585 13.5561 17.1016C13.056 17.6183 12.4382 17.9867 11.7637 18.1703L5.35238 19.9125C4.90379 20.0347 4.43295 20.0287 3.98723 19.8951C3.5415 19.7615 3.1366 19.505 2.81323 19.1515C2.79397 19.1346 2.77636 19.1157 2.76068 19.095L2.32452 18.5898L1.20171 17.2983L1.19621 17.2915H1.19987C1.23009 17.2708 1.42638 17.1467 1.75066 16.938L1.89953 16.8435L2.23113 16.6329L2.37011 16.5451L3.19574 16.0211L3.51105 15.8232L3.84248 15.6126L4.23176 15.3647C6.22763 14.0947 8.89679 12.3961 11.2563 10.8858L11.2581 10.8936L11.6317 10.6464L11.8043 10.5372C12.7305 9.94444 13.5957 9.38917 14.3354 8.91361C15.1248 8.40367 15.7769 7.98126 16.1971 7.7007Z" fill="#500084"/>
<path id="Vector_13" d="M11.6318 10.6482L11.2593 10.8917L11.2578 10.8854C11.3849 10.808 11.5083 10.7281 11.6318 10.6482Z" fill="#500084"/>
<path id="Vector_14" d="M12.3524 2.68995L8.24987 5.19491L2.26465 8.85183L4.37038 6.11651C4.37212 6.11576 4.37354 6.11438 4.37441 6.11261L4.37624 6.10948L4.85891 5.48212L4.86422 5.47274L6.37925 3.50292L6.52244 3.31731L7.40447 2.17317L8.02044 1.37075L8.04315 1.34046H8.04553C8.72302 0.457544 9.90352 0.315308 10.746 0.942671C10.8162 0.995798 10.8835 1.05327 10.9474 1.1148V1.11734C10.9806 1.15095 11.0135 1.18475 11.0472 1.22089L11.5965 1.83966L12.3524 2.68995Z" fill="#6B40F2"/>
<path id="Vector_15" d="M16.1538 7.44283C16.1705 7.52216 16.186 7.60676 16.1972 7.69253L16.1994 7.70171C15.7763 7.98208 15.1277 8.40253 14.3372 8.9158C14.335 8.91345 14.3335 8.91046 14.3328 8.9072C14.3306 8.90476 14.3291 8.90171 14.3284 8.89841L11.805 10.5396L11.6322 10.6482C11.5102 10.7281 11.3861 10.8088 11.2586 10.8852H11.2566L11.1519 10.6898L8.35895 5.40014L8.25 5.19558L10.0135 4.11924L10.478 3.8377L11.1094 3.45143L12.3545 2.69141L15.3969 5.84053C15.3969 5.84053 15.4274 5.87179 15.4771 5.9347C15.6322 6.1293 15.9837 6.63318 16.1538 7.44283Z" fill="#481196"/>
<path id="Vector_16" d="M11.6318 10.6482L11.2593 10.8917L11.2578 10.8854C11.3849 10.808 11.5083 10.7281 11.6318 10.6482Z" fill="#481196"/>
<path id="Vector_17" d="M9.7152 0.2958C8.83738 0.158253 8.17215 0.722704 7.8215 1.20256C7.57431 1.53919 6.03327 3.57759 5.14136 4.75357C5.08079 5.006 4.98702 5.24801 4.86285 5.47238L4.37634 6.10345L4.36114 6.12299L2.66062 8.33312L2.26364 8.84931L0.599379 5.85747L0.345409 5.40087C0.345409 5.40087 0.332409 5.37781 0.311351 5.33366C0.297252 5.30552 0.280589 5.26742 0.260447 5.22483C0.185708 5.072 0.127061 4.9108 0.0855798 4.7442C0.0808814 4.73272 0.0773813 4.72073 0.0751427 4.70844L0.0720299 4.69594C-0.232478 3.3994 0.450513 2.0081 1.70462 1.58472C1.75094 1.56928 1.79617 1.55717 1.8425 1.54447L7.24746 0.0754118C7.24746 0.0754118 7.26577 0.070332 7.3066 0.0619307C7.3312 0.0609595 7.35569 0.0579546 7.37985 0.0529432C7.72885 -0.00215377 8.71744 -0.102774 9.7152 0.2958Z" fill="#A6A6FF"/>
<path id="Vector_18" d="M16.1865 7.73214C16.2008 7.79935 16.2369 7.99805 16.2415 8.30929C16.2468 8.66644 16.2107 9.24887 16.0086 9.99522L15.6152 11.4463L14.5964 15.2201C14.595 15.2257 14.4575 15.8044 14.0403 16.4509C13.8016 16.8236 13.5088 17.1533 13.173 17.4278C12.7525 17.7683 12.2718 18.0142 11.7597 18.1507L10.9934 18.359C10.6142 18.4624 10.2195 18.4851 9.83207 18.4256C9.44462 18.3662 9.07193 18.2259 8.73533 18.0127C8.39872 17.7995 8.1048 17.5176 7.87036 17.1831C7.63592 16.8486 7.46555 16.4681 7.36901 16.0633C7.2111 15.4018 7.2569 14.7037 7.49964 14.0721C7.74237 13.4406 8.16915 12.9092 8.71686 12.5564L16.1865 7.73214ZM16.1984 7.70166L8.70734 12.5396C8.09135 12.936 7.62948 13.5555 7.40606 14.2851C7.18264 15.0147 7.21256 15.8057 7.49036 16.5137C7.76816 17.2217 8.27531 17.7995 8.91923 18.1416C9.56316 18.4837 10.3009 18.5673 10.9978 18.3772L11.7641 18.1689C14.076 17.5406 14.6142 15.2238 14.6142 15.2238L15.6325 11.4518L16.0258 10.0005C16.4191 8.54941 16.1981 7.70166 16.1981 7.70166H16.1984Z" fill="#652399"/>
<path id="Vector_19" d="M5.53068 14.9436C6.02833 14.9452 6.51178 15.1208 6.90691 15.4436C7.24373 15.7196 7.50098 16.0911 7.64929 16.5157C7.7976 16.9403 7.83098 17.4008 7.74561 17.8447C7.66024 18.2886 7.45957 18.6979 7.16652 19.0259C6.87348 19.3538 6.49988 19.5872 6.08842 19.6993L5.34867 19.893C5.13779 19.9491 4.92131 19.9779 4.70395 19.9785C4.10592 19.9785 3.62765 19.7503 3.33175 19.5589C3.01076 19.3512 2.82893 19.1408 2.8271 19.1384L1.23242 17.3018L4.25039 15.3664L4.272 15.3506C4.48496 15.1977 4.72112 15.0853 4.97001 15.0184C5.15325 14.9687 5.3416 14.9436 5.53068 14.9436ZM5.53068 14.9241C5.34047 14.9242 5.15101 14.9497 4.96671 14.9999C4.71578 15.0673 4.47765 15.1804 4.26285 15.3344L4.24106 15.35L1.20312 17.2979L2.81319 19.1517C2.81319 19.1517 3.53646 19.9981 4.7034 19.9981C4.92225 19.9976 5.14022 19.9686 5.35252 19.9119L6.09227 19.7183C6.63061 19.5715 7.10027 19.2202 7.41316 18.7303C7.72604 18.2403 7.86065 17.6454 7.79173 17.0571C7.72282 16.4688 7.45512 15.9275 7.03885 15.5348C6.62257 15.1421 6.08632 14.925 5.53068 14.9241Z" fill="#652399"/>
<path id="Vector_20" d="M1.99316 1.50445C0.624254 1.87567 -0.217123 3.31581 0.086102 4.74345C0.0892148 4.7665 0.0952573 4.79151 0.100567 4.81418C0.191988 5.19736 0.36253 5.5539 0.599718 5.8577C0.667747 5.94519 0.741152 6.02775 0.819446 6.10485C0.693847 5.81171 0.584467 5.51096 0.491867 5.20415C0.424943 5.05921 0.372705 4.90706 0.336043 4.75029C0.265647 4.45407 0.248991 4.14623 0.286971 3.84334C0.286436 3.84204 0.28616 3.84065 0.28616 3.83923C0.28616 3.83782 0.286436 3.83642 0.286971 3.83513C0.2888 3.81544 0.291673 3.79587 0.295577 3.77652C0.295877 3.76723 0.297043 3.75801 0.299056 3.74897C0.300154 3.7433 0.301436 3.73764 0.302535 3.73197C0.459091 2.80646 1.12322 2.00697 2.05304 1.75415C3.31465 1.41165 4.59164 2.19824 4.90438 3.50846C5.08493 4.26516 4.90438 5.03476 4.47719 5.61484C4.45036 5.6529 4.42143 5.68924 4.39058 5.72367L4.36788 5.75395L3.73708 6.56829C3.96386 6.45259 4.17399 6.30292 4.3611 6.1238C4.36349 6.1238 4.36513 6.12009 4.36934 6.11638C4.37108 6.11563 4.37251 6.11424 4.37337 6.11247L4.3752 6.10935C4.456 6.03187 4.53129 5.94808 4.60043 5.85867L4.67935 5.76001V5.75747C4.7454 5.6705 4.80532 5.57842 4.85861 5.48198L4.86392 5.4726C4.98809 5.24824 5.08186 5.00623 5.14242 4.7538C5.24327 4.32397 5.24238 3.87414 5.13986 3.44476C4.79287 1.99407 3.38533 1.12542 1.99316 1.50445Z" fill="#BBBBFF"/>
<path id="Vector_21" d="M10.946 1.11365C10.8821 1.05212 10.8148 0.994644 10.7446 0.941518C9.90506 0.316304 8.72329 0.455805 8.04414 1.33931H8.04176L8.01906 1.36959L7.40345 2.17299L6.52142 3.31713L6.37823 3.50274L4.8632 5.47256C4.98738 5.24819 5.08114 5.00619 5.14171 4.75376C6.03363 3.57777 7.57466 1.53938 7.82185 1.20274C8.1725 0.722888 8.83773 0.158437 9.71555 0.295984H9.71793C10.1764 0.473866 10.5948 0.752423 10.946 1.11365Z" fill="#BBBBFF"/>
<path id="Vector_22" d="M4.67831 5.75737L4.67904 5.75991L4.60012 5.85858L2.26367 8.84945L2.14062 8.62671L3.73677 6.5682L4.36758 5.75386L4.39028 5.72357L4.47689 5.61475L4.67831 5.75737Z" fill="#BBBBFF"/>
<path id="Vector_23" d="M0.368973 5.50832L1.12942 6.81032L0.818501 6.10481L0.368973 5.50832Z" fill="#BBBBFF"/>
</g>
</g>
</g>
<defs>
<clipPath id="clip0_151_28753">
<rect width="136.667" height="20" fill="white"/>
</clipPath>
</defs>
</svg>
