<svg width="16" height="16" viewBox="0 0 16 16" fill="none" xmlns="http://www.w3.org/2000/svg">
<g id="pie-chart-03" clip-path="url(#clip0_151_10580)">
<path id="Icon" d="M7.99998 1.33331C8.87546 1.33331 9.74237 1.50575 10.5512 1.84078C11.36 2.17581 12.095 2.66688 12.714 3.28594C13.3331 3.90499 13.8241 4.63992 14.1592 5.44876C14.4942 6.2576 14.6666 7.1245 14.6666 7.99998M7.99998 1.33331V7.99998M7.99998 1.33331C4.31808 1.33331 1.33331 4.31808 1.33331 7.99998C1.33331 11.6819 4.31808 14.6666 7.99998 14.6666C11.6819 14.6666 14.6666 11.6819 14.6666 7.99998M7.99998 1.33331C11.6819 1.33331 14.6666 4.31809 14.6666 7.99998M14.6666 7.99998L7.99998 7.99998M14.6666 7.99998C14.6666 9.05205 14.4177 10.0892 13.94 11.0266C13.4624 11.964 12.7697 12.775 11.9185 13.3934L7.99998 7.99998" stroke="#4B5563" stroke-width="1.33333" stroke-linecap="round" stroke-linejoin="round"/>
</g>
<defs>
<clipPath id="clip0_151_10580">
<rect width="16" height="16" fill="white"/>
</clipPath>
</defs>
</svg>
