<svg width="19" height="18" viewBox="0 0 19 18" fill="none" xmlns="http://www.w3.org/2000/svg">
<g id="Star" clip-path="url(#clip0_464_441)">
<path id="Star_2" d="M9.08451 1.44892C9.23822 1.07934 9.76178 1.07934 9.91549 1.44892L11.775 5.91965C11.8398 6.07546 11.9863 6.18191 12.1545 6.1954L16.981 6.58234C17.38 6.61433 17.5418 7.11225 17.2378 7.37265L13.5605 10.5227C13.4324 10.6324 13.3764 10.8047 13.4156 10.9688L14.539 15.6787C14.6319 16.0681 14.2083 16.3758 13.8667 16.1671L9.73456 13.6432C9.59056 13.5553 9.40944 13.5553 9.26544 13.6432L5.13325 16.1671C4.79166 16.3758 4.3681 16.0681 4.46097 15.6787L5.58445 10.9688C5.6236 10.8047 5.56763 10.6324 5.43948 10.5227L1.76217 7.37265C1.45818 7.11225 1.61997 6.61433 2.01896 6.58234L6.84549 6.1954C7.0137 6.18191 7.16022 6.07546 7.22502 5.91965L9.08451 1.44892Z" fill="#FEC84B"/>
</g>
<defs>
<clipPath id="clip0_464_441">
<rect width="18" height="18" fill="white" transform="translate(0.5)"/>
</clipPath>
</defs>
</svg>
