<svg width="20" height="20" viewBox="0 0 20 20" fill="none" xmlns="http://www.w3.org/2000/svg">
<g id="thumbs-up">
<path id="Icon" d="M5.83335 18.3332V9.1665M1.66669 10.8332V16.6665C1.66669 17.587 2.41288 18.3332 3.33335 18.3332H14.5219C15.7558 18.3332 16.8052 17.4329 16.9928 16.2133L17.8903 10.38C18.1232 8.86558 16.9515 7.49984 15.4193 7.49984H12.5C12.0398 7.49984 11.6667 7.12674 11.6667 6.6665V3.72137C11.6667 2.5865 10.7467 1.6665 9.61182 1.6665C9.34113 1.6665 9.09584 1.82592 8.9859 2.07327L6.0533 8.67162C5.91955 8.97256 5.62112 9.1665 5.29179 9.1665H3.33335C2.41288 9.1665 1.66669 9.9127 1.66669 10.8332Z" stroke="white" stroke-width="1.66667" stroke-linecap="round" stroke-linejoin="round"/>
</g>
</svg>
