<svg width="58" height="36" viewBox="0 0 58 36" fill="none" xmlns="http://www.w3.org/2000/svg">
<g id="Vector 9" filter="url(#filter0_d_151_10187)">
<path d="M52.8863 1.36365L47.5465 10.105C47.2849 10.5333 46.7319 10.6786 46.2935 10.4344L41.2074 7.60116C40.7373 7.3393 40.1437 7.52724 39.9101 8.01195L34.2126 19.8296C34.1191 20.0234 33.9617 20.1791 33.7668 20.2704L29.5045 22.2662C29.0638 22.4726 28.5385 22.3064 28.2966 21.8842L22.1201 11.1034C22.0333 10.9519 21.9058 10.8277 21.7521 10.7449L16.0349 7.66624C15.5111 7.38419 14.8606 7.65651 14.6939 8.22758L10.0141 24.2643C9.94516 24.5006 9.78587 24.7001 9.57077 24.8197L2.70447 28.6364" stroke="#15C39A" stroke-width="2" stroke-linecap="round"/>
</g>
<defs>
<filter id="filter0_d_151_10187" x="0.0679209" y="0.363495" width="57.0913" height="35.0003" filterUnits="userSpaceOnUse" color-interpolation-filters="sRGB">
<feFlood flood-opacity="0" result="BackgroundImageFix"/>
<feColorMatrix in="SourceAlpha" type="matrix" values="0 0 0 0 0 0 0 0 0 0 0 0 0 0 0 0 0 0 127 0" result="hardAlpha"/>
<feOffset dx="0.818182" dy="3.27273"/>
<feGaussianBlur stdDeviation="1.22727"/>
<feComposite in2="hardAlpha" operator="out"/>
<feColorMatrix type="matrix" values="0 0 0 0 0.0823529 0 0 0 0 0.764706 0 0 0 0 0.603922 0 0 0 0.22 0"/>
<feBlend mode="normal" in2="BackgroundImageFix" result="effect1_dropShadow_151_10187"/>
<feBlend mode="normal" in="SourceGraphic" in2="effect1_dropShadow_151_10187" result="shape"/>
</filter>
</defs>
</svg>
